<svg xmlns="http://www.w3.org/2000/svg" viewBox="0 0 512 512">
  <defs>
    <linearGradient id="professionalBg" x1="0%" y1="0%" x2="0%" y2="100%">
      <stop offset="0%" style="stop-color:#1e3a8a;stop-opacity:1" />
      <stop offset="100%" style="stop-color:#0f172a;stop-opacity:1" />
    </linearGradient>
    <linearGradient id="brickGrad" x1="0%" y1="0%" x2="0%" y2="100%">
      <stop offset="0%" style="stop-color:#7c3aed;stop-opacity:0.3" />
      <stop offset="100%" style="stop-color:#6366f1;stop-opacity:0.5" />
    </linearGradient>
    <linearGradient id="sidingGrad" x1="0%" y1="0%" x2="0%" y2="100%">
      <stop offset="0%" style="stop-color:#60a5fa;stop-opacity:0.6" />
      <stop offset="100%" style="stop-color:#3b82f6;stop-opacity:0.7" />
    </linearGradient>
    <linearGradient id="roofGrad" x1="0%" y1="0%" x2="0%" y2="100%">
      <stop offset="0%" style="stop-color:#94a3b8;stop-opacity:0.8" />
      <stop offset="100%" style="stop-color:#64748b;stop-opacity:0.9" />
    </linearGradient>
    <linearGradient id="cometGold" x1="0%" y1="0%" x2="100%" y2="100%">
      <stop offset="0%" style="stop-color:#fde047;stop-opacity:1" />
      <stop offset="50%" style="stop-color:#fbbf24;stop-opacity:1" />
      <stop offset="100%" style="stop-color:#f59e0b;stop-opacity:1" />
    </linearGradient>
  </defs>
  
  <!-- Professional dark gradient background -->
  <rect width="512" height="512" rx="110" fill="url(#professionalBg)"/>
  
  <!-- Comet streaking across sky -->
  <path d="M 80 90 L 380 155" 
        stroke="url(#cometGold)" 
        stroke-width="5" 
        fill="none" 
        opacity="0.7"
        stroke-linecap="round"/>
  <path d="M 90 95 L 375 157" 
        stroke="#fde047" 
        stroke-width="2.5" 
        fill="none" 
        opacity="0.9"
        stroke-linecap="round"/>
  <circle cx="390" cy="160" r="20" fill="url(#cometGold)"/>
  <circle cx="390" cy="160" r="12" fill="#fde047"/>
  <path d="M 390 160 l 9 5 l 5 9 l -5 -9 l -9 5 l 5 -9 l 9 -5 l -5 9 z" fill="#ffffff" opacity="0.9"/>
  
  <!-- Professional circular badge for apartments -->
  <circle cx="256" cy="280" r="140" fill="#0f172a" stroke="url(#cometGold)" stroke-width="6"/>
  <circle cx="256" cy="280" r="130" fill="#1e293b"/>
  
  <!-- Left apartment building inside circle - 2 story with peaked roof -->
  <!-- Brick base -->
  <rect x="130" y="310" width="55" height="50" fill="url(#brickGrad)"/>
  
  <!-- Windows first floor -->
  <rect x="135" y="318" width="10" height="12" fill="#dbeafe" opacity="0.9"/>
  <rect x="148" y="318" width="10" height="12" fill="#dbeafe" opacity="0.9"/>
  <rect x="161" y="318" width="10" height="12" fill="#dbeafe" opacity="0.9"/>
  <rect x="135" y="345" width="10" height="12" fill="#dbeafe" opacity="0.9"/>
  <rect x="161" y="345" width="10" height="12" fill="#dbeafe" opacity="0.9"/>
  
  <!-- Door -->
  <rect x="148" y="345" width="10" height="15" fill="#1e3a8a" opacity="0.8"/>
  
  <!-- Siding second floor -->
  <rect x="130" y="295" width="55" height="15" fill="url(#sidingGrad)"/>
  
  <!-- Windows second floor -->
  <rect x="135" y="298" width="10" height="10" fill="#dbeafe" opacity="0.9"/>
  <rect x="148" y="298" width="10" height="10" fill="#dbeafe" opacity="0.9"/>
  <rect x="161" y="298" width="10" height="10" fill="#dbeafe" opacity="0.9"/>
  
  <!-- Peaked roof -->
  <path d="M 127 295 L 157.5 270 L 188 295 Z" fill="url(#roofGrad)"/>
  
  <!-- Center apartment complex - 3 story townhome style -->
  <!-- Brick base -->
  <rect x="195" y="300" width="65" height="60" fill="url(#brickGrad)"/>
  
  <!-- First floor windows -->
  <rect x="200" y="308" width="11" height="14" fill="#dbeafe"/>
  <rect x="215" y="308" width="11" height="14" fill="#dbeafe"/>
  <rect x="230" y="308" width="11" height="14" fill="#dbeafe"/>
  <rect x="245" y="308" width="11" height="14" fill="#dbeafe"/>
  
  <!-- Doors -->
  <rect x="200" y="340" width="11" height="18" fill="#1e3a8a" opacity="0.8"/>
  <rect x="230" y="340" width="11" height="18" fill="#1e3a8a" opacity="0.8"/>
  
  <!-- Second floor siding -->
  <rect x="195" y="285" width="65" height="15" fill="url(#sidingGrad)"/>
  
  <!-- Second floor windows -->
  <rect x="200" y="288" width="11" height="10" fill="#dbeafe"/>
  <rect x="215" y="288" width="11" height="10" fill="#dbeafe"/>
  <rect x="230" y="288" width="11" height="10" fill="#dbeafe"/>
  <rect x="245" y="288" width="11" height="10" fill="#dbeafe"/>
  
  <!-- Third floor attic -->
  <rect x="195" y="270" width="65" height="15" fill="url(#brickGrad)"/>
  <rect x="215" y="273" width="11" height="9" fill="#dbeafe"/>
  <rect x="230" y="273" width="11" height="9" fill="#dbeafe"/>
  
  <!-- Peaked roofs -->
  <path d="M 193 270 L 227.5 240 L 262 270 Z" fill="url(#roofGrad)"/>
  
  <!-- Garage door -->
  <rect x="245" y="343" width="12" height="15" fill="#475569" opacity="0.7"/>
  <line x1="245" y1="347" x2="257" y2="347" stroke="#94a3b8" stroke-width="0.5"/>
  <line x1="245" y1="350" x2="257" y2="350" stroke="#94a3b8" stroke-width="0.5"/>
  <line x1="245" y1="353" x2="257" y2="353" stroke="#94a3b8" stroke-width="0.5"/>
  
  <!-- Right apartment building - 2 story with peaked roof -->
  <!-- Siding -->
  <rect x="270" y="305" width="58" height="55" fill="url(#sidingGrad)"/>
  
  <!-- Windows first floor -->
  <rect x="275" y="313" width="10" height="13" fill="#dbeafe" opacity="0.9"/>
  <rect x="289" y="313" width="10" height="13" fill="#dbeafe" opacity="0.9"/>
  <rect x="303" y="313" width="10" height="13" fill="#dbeafe" opacity="0.9"/>
  <rect x="317" y="313" width="10" height="13" fill="#dbeafe" opacity="0.9"/>
  
  <!-- Doors -->
  <rect x="275" y="343" width="10" height="16" fill="#1e3a8a" opacity="0.8"/>
  <rect x="303" y="343" width="10" height="16" fill="#1e3a8a" opacity="0.8"/>
  
  <!-- Second floor -->
  <rect x="270" y="290" width="58" height="15" fill="url(#brickGrad)"/>
  
  <!-- Windows second floor -->
  <rect x="275" y="293" width="10" height="10" fill="#dbeafe" opacity="0.9"/>
  <rect x="289" y="293" width="10" height="10" fill="#dbeafe" opacity="0.9"/>
  <rect x="303" y="293" width="10" height="10" fill="#dbeafe" opacity="0.9"/>
  <rect x="317" y="293" width="10" height="10" fill="#dbeafe" opacity="0.9"/>
  
  <!-- Peaked roof -->
  <path d="M 267 290 L 299 265 L 331 290 Z" fill="url(#roofGrad)"/>
  
  <!-- Far right smaller building - 2 story -->
  <rect x="335" y="312" width="45" height="48" fill="url(#brickGrad)"/>
  
  <!-- Windows -->
  <rect x="340" y="320" width="9" height="12" fill="#dbeafe" opacity="0.9"/>
  <rect x="352" y="320" width="9" height="12" fill="#dbeafe" opacity="0.9"/>
  <rect x="364" y="320" width="9" height="12" fill="#dbeafe" opacity="0.9"/>
  
  <!-- Doors -->
  <rect x="340" y="345" width="9" height="14" fill="#1e3a8a" opacity="0.8"/>
  <rect x="364" y="345" width="9" height="14" fill="#1e3a8a" opacity="0.8"/>
  
  <!-- Second floor -->
  <rect x="335" y="300" width="45" height="12" fill="url(#sidingGrad)"/>
  <rect x="340" y="303" width="9" height="8" fill="#dbeafe" opacity="0.9"/>
  <rect x="352" y="303" width="9" height="8" fill="#dbeafe" opacity="0.9"/>
  <rect x="364" y="303" width="9" height="8" fill="#dbeafe" opacity="0.9"/>
  
  <!-- Peaked roof -->
  <path d="M 332 300 L 357.5 278 L 383 300 Z" fill="url(#roofGrad)"/>
  
  <!-- Ground/landscaping inside circle -->
  <ellipse cx="256" cy="370" rx="125" ry="15" fill="#2D5016" opacity="0.4"/>
  
  <!-- Small decorative trees -->
  <ellipse cx="125" cy="365" rx="8" ry="10" fill="#2D5016" opacity="0.6"/>
  <ellipse cx="385" cy="368" rx="8" ry="10" fill="#2D5016" opacity="0.6"/>
  
  <!-- Company text - CHANGED TO BUILDERS -->
  <text x="256" y="450" 
        font-family="Arial, sans-serif" 
        font-size="46" 
        font-weight="900" 
        text-anchor="middle" 
        fill="#ffffff"
        letter-spacing="10">COMET</text>
  <text x="256" y="485" 
        font-family="Arial, sans-serif" 
        font-size="28" 
        font-weight="600" 
        text-anchor="middle" 
        fill="#60a5fa"
        letter-spacing="8">BUILDERS</text>
</svg>